<svg xmlns="http://www.w3.org/2000/svg" width="153" height="36" fill="none"><path fill="#AE285D" d="M21.743 0c2.155 3.689 4.31 7.336 6.385 11.025-3.4 6.01-6.799 12.063-10.322 18.031-1.369 2.279-2.654 4.602-4.02 6.881-4.35.042-8.705.042-13.015 0 .125-.29.249-.58.414-.869C8.064 23.378 14.945 11.732 21.743 0m94.511 9.036q3.606 6.715 7.212 13.432c-.828 0-1.7-.042-2.527 0-.58-.997-1.079-2.031-1.617-3.027-2.114-.083-4.268 0-6.385-.042-.496 1.038-1.079 2.03-1.617 3.027h-2.485c2.403-4.478 4.847-8.953 7.419-13.39m-2.282 8.498c1.451 0 2.902 0 4.351.042-.745-1.37-1.369-2.738-2.155-4.062a93 93 0 0 0-2.196 4.02m10.86-8.54c3.606 3.152 7.253 6.303 10.818 9.492.083-2.903 0-5.761.083-8.664.786 0 1.534.042 2.32.042-.041 4.436 0 8.912 0 13.348-2.362-1.989-4.685-4.061-7.005-6.092-1.327-1.12-2.61-2.237-3.855-3.44-.041 2.944 0 5.843-.041 8.788h-2.32c0-4.52-.042-8.995 0-13.473M48.231 22.427c2.486-4.478 4.933-8.995 7.502-13.431 2.403 4.478 4.767 8.953 7.212 13.431h-2.569a69 69 0 0 1-1.534-3.027c-2.155-.041-4.268 0-6.426 0-.538.996-1.079 2.03-1.658 3.027-.87.041-1.7.041-2.527 0m5.223-4.892h4.392c-.745-1.368-1.368-2.737-2.155-4.061-.786 1.365-1.492 2.693-2.237 4.061m30.424-7.336c1.245-.621 2.655-.662 3.979-.414 1.162.248 2.072 1.079 2.778 1.948-.62.33-1.244.62-1.865.955-.827-1.286-2.778-1.7-3.978-.704-.621.455-.58 1.576.124 1.907 1.617.869 3.565 1.078 4.975 2.279 1.45 1.244 1.41 3.688.04 4.974-1.45 1.451-3.73 1.783-5.636 1.245-1.617-.414-2.82-1.866-3.027-3.482.787-.166 1.576-.29 2.362-.414.083.745.372 1.617 1.12 1.99 1.12.62 2.779.454 3.565-.663.538-.745.372-1.906-.372-2.444-1.576-1.038-3.648-1.12-5.1-2.445-.744-.62-1.037-1.7-.785-2.654.203-.961.993-1.665 1.82-2.078m-20.185-.29c.869-.124 1.782-.083 2.654-.083.955 1.41 1.907 2.82 2.82 4.227.996-1.41 1.948-2.82 2.944-4.185a30 30 0 0 1 2.737 0c-1.451 1.989-2.903 3.978-4.31 6.009 1.452 2.237 3.069 4.35 4.52 6.633h-2.61c-1.12-1.576-2.196-3.192-3.275-4.768-1.12 1.576-2.28 3.151-3.4 4.768h-2.61c1.535-2.238 3.11-4.393 4.727-6.592-1.422-2.03-2.829-4.02-4.197-6.009m13.304-.044a22 22 0 0 1 2.32 0v12.6h-2.361c.041-4.226 0-8.412.041-12.6m22.757-.042c1.989.083 4.144-.29 6.009.704 1.783.954 2.197 3.813.538 5.099 1.038.413 2.072 1.203 2.321 2.32.455 1.41-.331 2.944-1.576 3.689-2.237 1.244-4.85.662-7.295.828-.038-4.183.003-8.41.003-12.64m2.323 1.827v3.606c.869-.041 1.824 0 2.569-.538.745-.662.745-2.072-.124-2.654-.704-.458-1.617-.414-2.445-.414m0 5.261v3.69c1.162-.042 2.404.165 3.482-.415.955-.455 1.121-1.989.249-2.61-1.038-.872-2.448-.665-3.731-.665m38.716-7.088h2.321v4.975c1.906-1.7 3.854-3.317 5.802-5.016h3.192a418 418 0 0 0-6.84 5.72c2.238 2.361 4.52 4.602 6.799 6.88-1.038 0-2.114.084-3.151-.04-1.824-1.824-3.606-3.69-5.389-5.555l-.372.497c-.041 1.7 0 3.4-.041 5.099h-2.362c0-4.144 0-8.33.041-12.56M21.743 22.385c4.351 0 8.705-.042 13.056.041 2.61 4.52 5.265 8.995 7.833 13.556-4.35.041-8.705 0-13.056 0-2.568-4.561-5.264-9.04-7.833-13.597"/></svg>